<svg xmlns="http://www.w3.org/2000/svg" viewBox="0 0 172.19 40"><defs><style>.cls-1{fill:#d2524d;}.cls-2{fill:#fff;}</style></defs><title>Asset 1</title><g id="Layer_2" data-name="Layer 2"><g id="Layer_1-2" data-name="Layer 1"><path d="M0,10H3.31L11,21.78,18.72,10H22V31H18V16.74L11,27.86,4,16.77V31H0Z"/><path d="M26,10h4V31H26Z"/><path d="M36.85,12.62a11,11,0,0,1,7.93-3.11,10.59,10.59,0,0,1,7.82,3.17L50.1,15a7.32,7.32,0,0,0-5.32-2.05,7.17,7.17,0,0,0-5.3,2.14,7.3,7.3,0,0,0-2.13,5.35,7.28,7.28,0,0,0,7.43,7.46c2,0,5.22-1.81,5.22-1.81V22H44V19H54v8.33a25,25,0,0,1-4.37,2.9,11.34,11.34,0,0,1-4.85,1.06,11.09,11.09,0,0,1-7.93-3.1,10.33,10.33,0,0,1-3.25-7.78A10.35,10.35,0,0,1,36.85,12.62Z"/><path class="cls-1" d="M172,18.63,160.31.77A1.92,1.92,0,0,0,158.89,0h-100A.92.92,0,0,0,58,.92V39.08a.92.92,0,0,0,.92.92h100a1.81,1.81,0,0,0,1.39-.78l11.71-19A1.56,1.56,0,0,0,172,18.63Z"/><path class="cls-2" d="M74,13H68V10H83v3H78V31H74Z"/><path class="cls-2" d="M87.38,12.66a11.46,11.46,0,0,1,15.78,0,10.42,10.42,0,0,1,3.25,7.78,10.4,10.4,0,0,1-3.23,7.76,11.48,11.48,0,0,1-15.8,0,10.36,10.36,0,0,1-3.23-7.76A10.44,10.44,0,0,1,87.38,12.66ZM90,25.79a7.53,7.53,0,0,0,10.54,0,7.28,7.28,0,0,0,2.13-5.33,7.36,7.36,0,0,0-2.13-5.35,7.48,7.48,0,0,0-10.54,0,7.36,7.36,0,0,0-2.13,5.35A7.28,7.28,0,0,0,90,25.79Z"/><path class="cls-2" d="M110,10h8.67a7.37,7.37,0,0,1,5.12,1.91,6.15,6.15,0,0,1,2.11,4.75,6.16,6.16,0,0,1-1.12,3.64,6.29,6.29,0,0,1-2.94,2.32L127.25,31h-5.54l-4.21-7H114v7h-4Zm8.16,10a3.5,3.5,0,0,0,2.59-1,3.46,3.46,0,0,0,1-2.56,3.38,3.38,0,0,0-.94-2.47,3.09,3.09,0,0,0-2.34-1H114v7Z"/><path class="cls-2" d="M131,12.62a11,11,0,0,1,7.93-3.11,10.63,10.63,0,0,1,7.83,3.17L144.26,15a7.32,7.32,0,0,0-5.32-2.05,7.17,7.17,0,0,0-5.3,2.14,7.3,7.3,0,0,0-2.13,5.35,7.28,7.28,0,0,0,7.43,7.46c2,0,5.06-1.81,5.06-1.81V22h-6V19h10v8.33a19.38,19.38,0,0,1-4.21,2.9,11.34,11.34,0,0,1-4.85,1.06,11.09,11.09,0,0,1-7.93-3.1,10.32,10.32,0,0,1-3.24-7.78A10.34,10.34,0,0,1,131,12.62Z"/><circle class="cls-2" cx="158.66" cy="19.85" r="3.15"/></g></g></svg>